# xmcd CD database file
#
# Track frame offsets:
#	150
#	20410
#	47397
#	69295
#	86752
#	106915
#	130892
#	153255
#
# Disc length: 2384 seconds
#
# Revision: 0
# Processed by: cddbd v1.4PL0 Copyright (c) Steve Scherf et al.
# Submitted via: CDex 1.51
#
DISCID=58094e08
DTITLE=Expresion Latina Orquesta - Realidad
DYEAR=1997
DGENRE=Salsa
TTITLE0=Por No Hablarte
TTITLE1=Avisale
TTITLE2=Recuerdoes De Amor
TTITLE3=Realidad
TTITLE4=Caridad
TTITLE5=Alejate
TTITLE6=Aniversario
TTITLE7=Consejo
EXTD=YEAR: 1997
EXTT0=
EXTT1=
EXTT2=
EXTT3=
EXTT4=
EXTT5=
EXTT6=
EXTT7=
PLAYORDER=
